<?xml version="1.0" encoding="iso-8859-1"?>
<!-- Uploaded to: SVG Repo, www.svgrepo.com, Generator: SVG Repo Mixer Tools -->
<!DOCTYPE svg PUBLIC "-//W3C//DTD SVG 1.1//EN" "http://www.w3.org/Graphics/SVG/1.1/DTD/svg11.dtd">
<svg fill="#000000" version="1.1" id="Capa_1" xmlns="http://www.w3.org/2000/svg" xmlns:xlink="http://www.w3.org/1999/xlink" 
	 width="800px" height="800px" viewBox="0 0 611.992 611.992"
	 xml:space="preserve">
<g>
	<g>
		<path d="M373.93,387.705c3.605,7.112,5.438,14.633,5.438,22.364c0,13.051-4.732,19.965-16.88,24.651
			c-14.145,5.458-35.382,6.302-56.395,6.334c-0.422,0-0.844,0-1.266,0c-21.421,0-43.232-0.771-57.661-6.334
			c-12.147-4.687-16.88-11.601-16.88-24.651c0-7.6,1.766-15.008,5.26-22.015l-25.535-12.722
			c-5.478,10.994-8.252,22.681-8.252,34.736c0,24.671,12.154,42.396,35.138,51.267c18.785,7.251,43.753,8.253,67.93,8.253
			c0.422,0,0.844,0,1.266,0c23.781-0.04,48.208-1.127,66.664-8.246c22.99-8.872,35.138-26.603,35.138-51.267
			c0-12.26-2.867-24.124-8.522-35.276L373.93,387.705z"/>
		<path d="M304.821,422.698c0.422,0,0.844-0.02,1.266-0.033c22.772-0.712,41.037-20.334,41.037-39.205
			c0-18.87-18.258-21.368-41.037-21.454c-0.422,0-0.844-0.007-1.266-0.007c-23.366,0-42.303,2.241-42.303,21.461
			C262.518,402.68,281.455,422.698,304.821,422.698z"/>
		<path d="M524.679,163.68c-22.252-6.789-45.263-13.809-67.211-32.297c-21.225-17.875-48.051-31.269-79.82-39.851
			c-11.106-25.376-31.566-41.993-32.509-42.751l-39.046-31.335l-3.467-2.775l3.461,8.602l16.886,41.96
			c1.852,4.594,2.136,8.035,1.272,11.772c-5.425-5.623-11.489-10.54-18.166-14.732c-6.453-4.053-13.479-7.435-21.059-10.111
			c-16.623-5.879-32.495-7.119-42.883-7.119c-7.666,0-12.623,0.666-13.163,0.738l-78.93,11.08l77.882,16.986
			c7.085,1.549,13.552,7.909,18.515,14.613c-29.028,6.446-63.824,18.897-92.357,42.929c-21.923,18.469-44.979,25.469-67.271,32.231
			c-31.572,9.583-64.219,19.49-78.357,62.808c-11.91,36.489-11.238,64.252,2.004,82.503c8.905,12.273,23.214,19.643,40.754,21.125
			c-0.29,13.914,1.008,35,8.516,58.162c7.653,23.59,20.163,44.537,37.188,62.248c10.652,11.086,23.076,20.867,37.142,29.298
			c4.449,9.228,33.24,70.737,33.24,117.062h28.534c0-33.458-12.339-72.076-22.74-98.686c1.885,0.686,13.294,5.419,16.55,7.073
			c7.448,11.68,29.766,51.022,29.766,92.106h28.534c0-25.226-6.94-49.369-14.883-68.754c22.219,11.351,41.551,18.39,72.728,18.39
			c0.105,0,0.204,0,0.31,0c30.023-0.046,53.198-7.151,76.689-18.587c-6.156,18.659-11.745,42.797-11.745,68.951h28.526
			c0-44.755,19.583-84.078,23.34-91.217c1.193-0.705,15.107-7.791,17.414-8.647c-7.639,26.385-17.012,65.616-17.012,99.37h28.527
			c0-43.727,18.383-100.616,23.583-115.842c14.923-8.701,28.033-18.891,39.205-30.518c17.025-17.711,29.535-38.651,37.188-62.248
			c7.461-22.997,8.786-43.944,8.522-57.858c17.935-1.193,32.527-8.516,41.472-20.921c13.144-18.245,13.565-46.205,1.253-83.096
			C588.674,183.204,556.139,173.284,524.679,163.68z M58.584,301.807c-0.211,0.007-0.429,0.007-0.653,0.007
			c-7.936,0-18.607-1.668-24.381-9.63c-2.433-3.355-3.975-7.811-4.647-13.222c3.005-5.926,7.046-9.65,12.609-11.627
			c9.333-3.322,21.428-1.22,30.775,1.661L58.584,301.807z M524.686,379.419c-6.308,19.451-16.61,36.707-30.616,51.273
			c-18.021,18.739-39.706,29.167-62.94,39.66c-41.269,18.64-78.238,47.925-125.043,48.063c-0.105,0-0.204,0-0.31,0
			c-36.852,0.007-95.152-31.006-126.651-48.07c-29.667-16.076-36.997-14.303-61.114-39.112
			c-14.006-14.409-24.361-31.467-30.781-50.707c-8.417-25.231-7.883-47.898-7.099-57.628l0.475,0.198l28.672-68.655l-11.713-6.024
			c-0.916-0.468-9.28-4.693-20.98-7.857c-15.958-4.317-30.201-4.594-42.402-0.844c0.442-1.457,0.896-2.933,1.391-4.429
			c9.531-29.186,29.417-35.224,59.526-44.359c4.159-1.259,8.41-2.557,12.741-3.941c-8.107,12.181-15.18,25.561-19.022,39.132
			l27.446,7.784c5.827-20.545,21.89-41.696,35.421-56.797c8.806,2.347,25.884,7.349,43.878,15.094
			c0.896,0.389,1.787,0.778,2.663,1.167c-14.428,2.05-29.067,12.873-37.583,28.23c-9.023,16.274-9.017,33.905,0.02,48.373
			c4.146,6.638,5.24,17.27,6.295,27.545c1.028,9.992,2.089,20.321,6.163,28.949c5.781,12.24,16.36,18.713,30.577,18.713
			c2.208,0,4.548-0.158,6.96-0.475c11.891-1.549,23.379-7.185,33.918-16.524c-2.148,5.325-4.581,10.078-7.296,14.19l23.808,15.721
			c12.405-18.785,19.919-45.052,22.338-78.067c1.028-14.059,2.61-30.083,0.303-44.056c-0.527-3.197-1.503-6.235-2.914-9.103
			c-9.999-23.636-35.026-44.174-74.422-61.062c-12.563-5.385-24.552-9.511-34.097-12.458c0.053-0.046,0.105-0.085,0.158-0.132
			c30.458-25.66,70.342-36.074,98.434-40.292l17.941-2.696l-6.855-16.801c-0.626-1.542-3.19-7.541-7.711-14.824
			c11.1,3.744,22.489,10.131,31.809,20.829c1.45,1.667,2.854,3.427,4.199,5.306l3.875,5.444l6.664,0.501
			c2.939,0.224,5.945,0.501,8.932,0.83l10.342,1.134l4.237-9.498c0.527-1.186,1.081-2.366,1.629-3.539
			c0.593-1.266,1.206-2.584,1.818-3.961c2.222,3.842,4.212,8.021,5.702,12.444l2.511,7.468l7.659,1.852
			c30.452,7.356,55.696,19.306,75.062,35.507c-9.755,2.966-22.312,7.237-35.487,12.886c-39.396,16.887-64.423,37.425-74.422,61.062
			c-1.411,2.874-2.38,5.906-2.914,9.103c-2.307,13.974-0.731,29.997,0.297,44.056c2.419,33.016,9.939,59.282,22.338,78.067
			l23.808-15.721c-2.716-4.112-5.154-8.865-7.296-14.19c10.539,9.34,22.027,14.976,33.918,16.524
			c2.413,0.316,4.753,0.475,6.961,0.475c14.224,0,24.796-6.473,30.583-18.713c4.073-8.621,5.135-18.957,6.163-28.949
			c1.055-10.275,2.148-20.907,6.301-27.545c9.037-14.468,9.044-32.099,0.021-48.373c-8.517-15.358-23.148-26.181-37.584-28.23
			c0.877-0.389,1.767-0.778,2.663-1.167c19.214-8.272,37.386-13.413,45.553-15.535c13.61,15.127,29.938,36.489,35.816,57.238
			l27.446-7.784c-3.829-13.512-10.855-26.846-18.931-38.981c4.206,1.352,8.345,2.617,12.386,3.85
			c30.062,9.168,49.915,15.226,59.657,44.399c0.436,1.298,0.837,2.57,1.232,3.836c-27.809-7.547-58.128,7.402-61.635,9.208
			l-11.713,6.024l27.216,65.168C531.909,326.221,533.959,350.827,524.686,379.419z M217.98,239.144l-8.489,0.343l-3.744,7.626
			c-0.652,1.325-6.321,13.38-5.458,29.193c0.58,10.651,4.199,24.381,16.182,36.963c-3.197,1.668-6.374,2.735-9.479,3.138
			c-1.199,0.158-2.3,0.237-3.282,0.237c-3.665,0-4.041-0.791-4.785-2.373c-1.991-4.212-2.801-12.082-3.586-19.688
			c-1.325-12.886-2.828-27.485-10.48-39.739c-4.396-7.04-2.03-14.448,0.731-19.431c5.023-9.063,13.407-13.895,17.526-13.895
			c0.211,0,0.402,0.013,0.574,0.04l0.514,0.079l0.501,0.046c13.947,1.18,30.894,4.192,43.278,10.955
			c6.69,3.652,7.25,7.422,7.527,14.633C240.015,238.59,220.544,239.039,217.98,239.144z M246.264,278.408
			c-2.557,5.227-5.583,10.434-9.043,15.298c-5.036-5.267-7.804-11.238-8.384-18.034c-0.224-2.65-0.086-5.148,0.217-7.349
			c5.721,0.856,11.977,2.617,15.219,5.787C245.203,275.007,246.066,276.167,246.264,278.408z M403.894,247.106l-3.744-7.626
			l-8.489-0.343c-2.563-0.105-22.034-0.554-37.537,8.134c0.276-7.211,0.837-10.981,7.527-14.633
			c12.385-6.763,29.331-9.775,43.278-10.955l0.501-0.046l0.514-0.079c0.172-0.026,0.362-0.04,0.573-0.04
			c4.12,0,12.497,4.825,17.526,13.894c2.762,4.977,5.128,12.392,0.731,19.431c-7.652,12.247-9.155,26.853-10.479,39.739
			c-0.784,7.606-1.596,15.47-3.586,19.688c-0.745,1.575-1.12,2.373-4.785,2.373c-0.982,0-2.09-0.079-3.282-0.237
			c-3.104-0.402-6.282-1.463-9.479-3.138c11.982-12.589,15.602-26.312,16.182-36.963
			C410.215,260.486,404.54,248.431,403.894,247.106z M380.798,275.666c-0.573,6.796-3.342,12.768-8.384,18.034
			c-3.461-4.864-6.486-10.064-9.044-15.298c0.198-2.241,1.062-3.401,1.984-4.304c3.249-3.17,9.498-4.924,15.219-5.787
			C380.884,270.525,381.021,273.023,380.798,275.666z M578.668,292.757c-5.504,7.639-15.865,9.241-23.59,9.241
			c-0.139,0-0.277,0-0.409,0l-13.782-33.003c9.353-2.88,21.448-4.983,30.774-1.661c5.036,1.792,8.826,5.009,11.726,9.999
			C582.959,283.78,581.391,288.987,578.668,292.757z"/>
	</g>
</g>
</svg>